<svg t="1687083497070" class="icon" viewBox="0 0 1024 1024" version="1.1"
  xmlns="http://www.w3.org/2000/svg" p-id="2486" width="128" height="128">
  <path d="M212.12 738.908h145.69v124.61H212.12z" fill="#FFFBF1" p-id="2487"></path>
  <path
    d="M357.81 878.078H212.12c-8.05 0-14.57-6.52-14.57-14.57v-124.6c0-8.05 6.52-14.57 14.57-14.57h145.69c8.05 0 14.57 6.52 14.57 14.57v124.6c0 8.05-6.52 14.57-14.57 14.57z m-131.12-29.14h116.55v-95.46H226.69v95.46z"
    fill="#363432" p-id="2488"></path>
  <path d="M666.17 738.908h145.69v124.61H666.17z" fill="#FFFBF1" p-id="2489"></path>
  <path
    d="M811.86 878.078H666.18c-8.05 0-14.57-6.52-14.57-14.57v-124.6c0-8.05 6.52-14.57 14.57-14.57h145.69c8.05 0 14.57 6.52 14.57 14.57v124.6c-0.01 8.05-6.53 14.57-14.58 14.57z m-131.12-29.14h116.55v-95.46H680.74v95.46z"
    fill="#363432" p-id="2490"></path>
  <path
    d="M863.63 801.198H160.36c-41.15 0-74.51-33.36-74.51-74.51v-484.41c0-41.15 33.36-74.51 74.51-74.51h703.28c41.15 0 74.51 33.36 74.51 74.51v484.42c-0.01 41.15-33.37 74.5-74.52 74.5z"
    fill="#FFFBF1" p-id="2491"></path>
  <path
    d="M863.62 823.048H160.36c-53.13 0-96.36-43.22-96.36-96.35v-484.41c0-53.14 43.22-96.36 96.36-96.36h703.28c53.13 0 96.36 43.22 96.36 96.36v484.42c-0.01 53.12-43.24 96.34-96.38 96.34z m-703.26-633.42c-29.03 0-52.65 23.62-52.65 52.66v484.42c0 29.02 23.62 52.64 52.65 52.64h703.27c29.04 0 52.66-23.62 52.67-52.64v-484.42c0-29.04-23.62-52.66-52.66-52.66H160.36z"
    fill="#363432" p-id="2492"></path>
  <path
    d="M807.17 717.768H304.22c-41.15 0-74.51-33.36-74.51-74.51v-317.6c0-41.15 33.36-74.51 74.51-74.51h502.96c41.15 0 74.51 33.36 74.51 74.51v317.6c-0.01 41.15-33.37 74.51-74.52 74.51z"
    fill="#FFFBF1" p-id="2493"></path>
  <path
    d="M807.17 732.328H304.22c-49.11 0-89.07-39.96-89.07-89.08v-317.6c0-49.11 39.96-89.08 89.07-89.08h502.96c49.12 0 89.08 39.96 89.08 89.08v317.6c-0.01 49.12-39.97 89.08-89.09 89.08z m-502.95-466.61c-33.05 0-59.93 26.89-59.93 59.94v317.6c0 33.05 26.88 59.94 59.93 59.94h502.95c33.05 0 59.95-26.89 59.95-59.94v-317.6c0-33.05-26.89-59.94-59.94-59.94H304.22z"
    fill="#363432" p-id="2494"></path>
  <path
    d="M255 419.158h-50.55c-19.23 0-34.82-15.59-34.82-34.82s15.59-34.82 34.82-34.82H255c19.23 0 34.82 15.59 34.82 34.82s-15.59 34.82-34.82 34.82z"
    fill="#EF7E20" p-id="2495"></path>
  <path
    d="M255 426.448h-50.56c-23.21 0-42.1-18.88-42.1-42.1 0-23.22 18.89-42.11 42.1-42.11H255c23.22 0 42.11 18.89 42.11 42.11-0.01 23.22-18.89 42.1-42.11 42.1z m-50.56-69.65c-15.18 0-27.53 12.35-27.53 27.54 0 15.18 12.35 27.53 27.53 27.53H255c15.18 0 27.54-12.35 27.54-27.53 0-15.19-12.36-27.54-27.54-27.54h-50.56z"
    fill="#363432" p-id="2496"></path>
  <path
    d="M255 619.478h-50.55c-19.23 0-34.82-15.59-34.82-34.82s15.59-34.82 34.82-34.82H255c19.23 0 34.82 15.59 34.82 34.82s-15.59 34.82-34.82 34.82z"
    fill="#EF7E20" p-id="2497"></path>
  <path
    d="M255 626.768h-50.56c-23.21 0-42.1-18.88-42.1-42.1 0-23.22 18.89-42.11 42.1-42.11H255c23.22 0 42.11 18.89 42.11 42.11-0.01 23.22-18.89 42.1-42.11 42.1z m-50.56-69.65c-15.18 0-27.53 12.35-27.53 27.54 0 15.18 12.35 27.53 27.53 27.53H255c15.18 0 27.54-12.35 27.54-27.53 0-15.19-12.36-27.54-27.54-27.54h-50.56z"
    fill="#363432" p-id="2498"></path>
  <path d="M711.1 484.498m-105.62 0a105.62 105.62 0 1 0 211.24 0 105.62 105.62 0 1 0-211.24 0Z"
    fill="#EF7E20" p-id="2499"></path>
  <path
    d="M711.11 611.988c-70.29 0-127.48-57.18-127.48-127.48s57.19-127.48 127.48-127.48 127.48 57.18 127.48 127.48-57.19 127.48-127.48 127.48z m0-211.25c-46.19 0-83.77 37.57-83.77 83.77 0 46.2 37.58 83.77 83.77 83.77s83.77-37.57 83.77-83.77c0-46.2-37.59-83.77-83.77-83.77z"
    fill="#363432" p-id="2500"></path>
  <path
    d="M711.11 462.848c-4.03 0-7.28-3.26-7.28-7.28v-28.23c0-4.03 3.26-7.28 7.28-7.28s7.28 3.26 7.28 7.28v28.23c0 4.03-3.26 7.28-7.28 7.28z"
    fill="#363432" p-id="2501"></path>
  <path
    d="M711.11 462.848c-4.03 0-7.28-3.26-7.28-7.28v-28.23c0-4.03 3.26-7.28 7.28-7.28s7.28 3.26 7.28 7.28v28.23c0 4.03-3.26 7.28-7.28 7.28z"
    fill="#363432" p-id="2502"></path>
</svg>
